<?xml version="1.0" encoding="UTF-8" standalone="no"?>
<!-- Created with Inkscape (http://www.inkscape.org/) -->

<svg
   width="36.0px"
   height="36.0px"
   viewBox="0 0 24.0 24.0"
   version="1.1"
   id="SVGRoot"
   sodipodi:docname="edit.svg"
   xml:space="preserve"
   inkscape:version="1.2 (dc2aedaf03, 2022-05-15)"
   xmlns:inkscape="http://www.inkscape.org/namespaces/inkscape"
   xmlns:sodipodi="http://sodipodi.sourceforge.net/DTD/sodipodi-0.dtd"
   xmlns="http://www.w3.org/2000/svg"
   xmlns:svg="http://www.w3.org/2000/svg"><sodipodi:namedview
     id="namedview250"
     pagecolor="#ffffff"
     bordercolor="#999999"
     borderopacity="1"
     inkscape:showpageshadow="0"
     inkscape:pageopacity="0"
     inkscape:pagecheckerboard="0"
     inkscape:deskcolor="#d1d1d1"
     inkscape:document-units="px"
     showgrid="true"
     inkscape:zoom="32.413584"
     inkscape:cx="14.808606"
     inkscape:cy="13.358597"
     inkscape:window-width="1920"
     inkscape:window-height="991"
     inkscape:window-x="-9"
     inkscape:window-y="-9"
     inkscape:window-maximized="1"
     inkscape:current-layer="layer1"><inkscape:grid
       type="xygrid"
       id="grid256" /></sodipodi:namedview><defs
     id="defs245" /><g
     inkscape:label="Layer 1"
     inkscape:groupmode="layer"
     id="layer1"><path
       style="fill:#2b0000;stroke-width:0.0308513"
       d="m 1.8973526,22.762938 c -0.097965,-0.02197 -0.2932584,-0.100739 -0.333461,-0.134491 -0.130759,-0.109775 -0.1985107,-0.18431 -0.2527129,-0.278015 -0.061244,-0.105879 -0.061762,-0.170112 -0.069633,-8.648365 -0.00545,-5.8700115 0.00216,-8.5791637 0.024328,-8.6614917 0.017742,-0.065889 0.045607,-0.1197989 0.061921,-0.1197989 0.016314,0 0.029662,-0.019591 0.029662,-0.043534 0,-0.06218 0.174066,-0.2009696 0.3582589,-0.285654 l 0.1577257,-0.072516 4.3157075,0.00803 c 4.2286822,0.00787 4.3181952,0.00926 4.4391122,0.069039 0.354699,0.1753502 0.528125,0.5596093 0.410081,0.9086175 -0.05406,0.1598305 -0.226205,0.363431 -0.374183,0.4425541 l -0.128452,0.068682 -3.8949716,0.0084 -3.8949719,0.0084 v 7.619574 7.619573 H 10.3506 17.955436 l 0.0017,-3.879547 c 0.0016,-3.577002 0.0058,-3.889605 0.05415,-4.00854 0.06774,-0.166684 0.203197,-0.315236 0.370623,-0.406447 0.11297,-0.06154 0.167294,-0.07094 0.354785,-0.06138 0.184131,0.0094 0.244634,0.02694 0.359514,0.104229 0.07597,0.05111 0.180092,0.15509 0.231384,0.231059 l 0.09326,0.138125 v 4.427156 c 0,4.370988 -7.84e-4,4.428511 -0.0617,4.533958 -0.08598,0.148818 -0.222493,0.273153 -0.385641,0.35123 l -0.13883,0.06644 -8.437821,0.0043 c -4.6408006,0.0024 -8.4655859,-0.002 -8.4995223,-0.0096 z"
       id="path275" /><path
       style="fill:#2b0000;stroke-width:0.0308513"
       d="M 6.9363129,17.452379 C 6.5408968,17.265084 6.4007114,16.818595 6.6002493,16.38202 c 0.04985,-0.109069 0.1487205,-0.338169 0.1930549,-0.447343 0.05636,-0.138788 0.1080391,-0.2597 0.1780131,-0.416492 0.037863,-0.08484 0.086354,-0.195905 0.1077581,-0.24681 0.021404,-0.05091 0.054124,-0.127261 0.072712,-0.169682 0.018588,-0.04242 0.070412,-0.167368 0.115166,-0.277661 0.044754,-0.110294 0.093966,-0.213722 0.1093602,-0.229842 0.015395,-0.01612 0.02799,-0.04775 0.02799,-0.07029 0,-0.02254 0.046372,-0.141242 0.1030495,-0.263779 0.056677,-0.122536 0.1489472,-0.333858 0.2050444,-0.469604 0.056097,-0.135745 0.1331103,-0.316225 0.1711402,-0.401066 0.03803,-0.08484 0.1006004,-0.230613 0.1390457,-0.323938 0.038445,-0.09333 0.1163645,-0.26994 0.1731537,-0.392476 0.056789,-0.122537 0.1032531,-0.232689 0.1032531,-0.244782 0,-0.148239 0.3782439,-0.537475 5.4964998,-5.6562407 2.95226,-2.9525534 5.380593,-5.3682789 5.396296,-5.3682789 0.0157,0 0.02855,-0.011997 0.02855,-0.02666 0,-0.044317 0.274911,-0.1349081 0.40399,-0.1331267 0.258673,0.00357 0.320795,0.049232 1.07687,0.7915473 0.398753,0.3914955 0.971937,0.954417 1.273744,1.2509367 0.301806,0.2965196 0.600292,0.6137016 0.663302,0.7048488 0.107921,0.1561134 0.114563,0.1794982 0.114563,0.4033195 0,0.2102131 -0.01031,0.2533383 -0.08947,0.3741749 -0.04921,0.075118 -0.584281,0.6294266 -1.189049,1.2317975 -0.604768,0.6023709 -3.028869,3.0214955 -5.38689,5.3758326 -2.358021,2.354337 -4.305876,4.280613 -4.328567,4.280613 -0.02269,0 -0.0781,0.01947 -0.123144,0.04326 -0.04504,0.02379 -0.192953,0.08849 -0.328698,0.143761 -0.135746,0.05528 -0.347068,0.146873 -0.469604,0.203551 -0.122537,0.05668 -0.241237,0.103049 -0.263779,0.103049 -0.02254,0 -0.05417,0.0124 -0.07029,0.02756 -0.01612,0.01516 -0.154256,0.07912 -0.30697,0.142129 -0.3152982,0.1301 -0.3999386,0.166451 -0.6170254,0.264997 -0.084841,0.03851 -0.1959055,0.08749 -0.2468101,0.108841 -0.050905,0.02135 -0.1619691,0.0687 -0.2468101,0.105214 -0.084841,0.03652 -0.188964,0.08049 -0.2313844,0.09772 -0.04242,0.01723 -0.1187774,0.04874 -0.169682,0.07002 -0.050905,0.02129 -0.1272614,0.05305 -0.1696819,0.07058 -0.04242,0.01753 -0.1604266,0.06987 -0.2622358,0.116295 -0.1018091,0.04643 -0.2128737,0.09526 -0.2468101,0.108501 -0.072174,0.02817 -0.2898835,0.120828 -0.4561028,0.194122 -0.154215,0.068 -0.4655182,0.06585 -0.6134869,-0.0042 z M 8.799276,15.304153 c 0.055722,-0.02439 0.195061,-0.08687 0.3096416,-0.13883 0.1145806,-0.05197 0.2166055,-0.09448 0.2267219,-0.09448 0.010117,0 0.069083,-0.02233 0.1310356,-0.04961 0.061953,-0.02729 0.1542911,-0.06769 0.2051957,-0.08978 0.050905,-0.02209 0.1619691,-0.07167 0.2468101,-0.110186 0.2020891,-0.09174 0.3268711,-0.143756 0.3933541,-0.163981 0.02969,-0.009 0.05399,-0.03137 0.05399,-0.04963 0,-0.03948 -0.9086238,-0.956508 -0.9460195,-0.954771 -0.025164,0.0012 -0.1093409,0.166696 -0.211192,0.415294 -0.027808,0.06787 -0.068409,0.165054 -0.090225,0.215959 -0.021816,0.0509 -0.054245,0.127261 -0.072064,0.169682 -0.017819,0.04242 -0.062276,0.146543 -0.098794,0.231384 -0.036518,0.08484 -0.083864,0.195906 -0.1052136,0.24681 -0.02135,0.05091 -0.069117,0.155028 -0.1061501,0.231385 -0.098777,0.203665 -0.095835,0.210248 0.06291,0.140757 z m 6.269069,-5.002549 c 2.079977,-2.0800992 3.781776,-3.7948139 3.781776,-3.8104774 0,-0.041128 -1.291197,-1.3235401 -1.332607,-1.3235401 -0.04382,0 -7.5834074,7.5369425 -7.5834074,7.5807455 0,0.03734 1.2906304,1.335269 1.3277624,1.335269 0.01358,0 1.726498,-1.701899 3.806476,-3.781997 z M 20.26509,5.1047653 20.975915,4.3940676 20.314794,3.7318841 C 19.951177,3.3676832 19.635999,3.0699305 19.614399,3.0702114 c -0.04791,6.233e-4 -1.381303,1.3345705 -1.381303,1.3818822 0,0.023661 1.264259,1.3304804 1.316174,1.3604826 0.0027,0.00159 0.324867,-0.3169273 0.71582,-0.7078109 z"
       id="path277" /></g></svg>
