<?xml version="1.0" encoding="UTF-8" standalone="no"?>
<!-- Created with Inkscape (http://www.inkscape.org/) -->

<svg
   width="40.0px"
   height="40.0px"
   viewBox="0 0 24.0 24.0"
   version="1.1"
   id="SVGRoot"
   sodipodi:docname="ic_camera.svg"
   xml:space="preserve"
   inkscape:version="1.2 (dc2aedaf03, 2022-05-15)"
   xmlns:inkscape="http://www.inkscape.org/namespaces/inkscape"
   xmlns:sodipodi="http://sodipodi.sourceforge.net/DTD/sodipodi-0.dtd"
   xmlns="http://www.w3.org/2000/svg"
   xmlns:svg="http://www.w3.org/2000/svg"><sodipodi:namedview
     id="namedview14"
     pagecolor="#ffffff"
     bordercolor="#999999"
     borderopacity="1"
     inkscape:showpageshadow="0"
     inkscape:pageopacity="0"
     inkscape:pagecheckerboard="0"
     inkscape:deskcolor="#d1d1d1"
     inkscape:document-units="px"
     showgrid="true"
     inkscape:zoom="22.919865"
     inkscape:cx="15.96868"
     inkscape:cy="14.528881"
     inkscape:window-width="1920"
     inkscape:window-height="991"
     inkscape:window-x="-9"
     inkscape:window-y="-9"
     inkscape:window-maximized="1"
     inkscape:current-layer="layer1"><inkscape:grid
       type="xygrid"
       id="grid20" /></sodipodi:namedview><defs
     id="defs9" /><g
     inkscape:label="Layer 1"
     inkscape:groupmode="layer"
     id="layer1"><path
       style="fill:#2b0000;stroke-width:0.0436303"
       d="M 10.645659,23.887085 C 8.2974192,23.602783 6.2722882,22.746039 4.4502879,21.266098 2.0943103,19.352426 0.5618941,16.631446 0.15226045,13.634461 -0.06064581,12.076783 0.06295096,10.128666 0.45675024,8.8351305 0.74944402,7.873702 0.84604005,7.6181683 1.2154268,6.8281379 1.9156043,5.3306251 3.1006047,3.8299021 4.4502879,2.7314041 5.1644256,2.1501722 5.7239167,1.7859569 6.6754319,1.2828882 7.1444534,1.0349152 8.120799,0.65902045 8.7478699,0.48499609 9.877822,0.17141231 10.696816,0.06426793 11.977701,0.06245547 c 0.823745,-0.0011656 2.005339,0.08578345 2.202138,0.16204701 0.03599,0.0139488 0.232331,0.06066 0.436303,0.10380273 0.951254,0.20120323 1.813411,0.51256029 2.835968,1.02417389 1.811749,0.9064691 3.496349,2.4481909 4.664221,4.2686299 0.303591,0.4732274 0.831289,1.4791875 0.919263,1.7524073 0.03091,0.095987 0.06994,0.1941547 0.08673,0.2181514 0.04843,0.069197 0.290013,0.7917254 0.408459,1.2216476 0.322555,1.1707752 0.391929,1.7229707 0.394664,3.1413797 0.0028,1.449185 -0.07144,2.05626 -0.39478,3.22864 -0.10962,0.39746 -0.339208,1.076593 -0.471989,1.396169 -0.241712,0.581748 -0.822063,1.672818 -0.979909,1.842246 -0.0397,0.04262 -0.07265,0.0873 -0.07322,0.0993 -0.0029,0.06134 -0.292935,0.470873 -0.662177,0.934987 -0.747744,0.939869 -1.852486,1.946254 -2.801156,2.551765 -0.203616,0.129962 -0.438929,0.281025 -0.522917,0.335696 -0.08399,0.05467 -0.20179,0.120463 -0.261782,0.146206 -0.05999,0.02574 -0.21706,0.105662 -0.349042,0.177598 -0.467564,0.254844 -1.342835,0.602813 -2.128513,0.846203 -0.508754,0.157604 -1.183295,0.278619 -2.304905,0.41351 -0.561497,0.06753 -1.587025,0.04995 -2.329402,-0.03993 z m 2.966986,-1.132812 c 1.110497,-0.170961 2.145804,-0.486549 3.075935,-0.937623 0.46902,-0.227455 1.261496,-0.677181 1.439799,-0.817078 0.024,-0.01883 0.269162,-0.20625 0.544813,-0.416494 0.886747,-0.676338 1.757182,-1.610904 2.387846,-2.563775 0.422094,-0.637741 0.57968,-0.926089 0.929932,-1.701581 0.308154,-0.682279 0.54691,-1.494569 0.730984,-2.486925 0.103825,-0.559727 0.113516,-0.711192 0.115857,-1.810657 0.0023,-1.058167 -0.009,-1.264616 -0.0953,-1.748515 -0.2765,-1.5503879 -0.737386,-2.7938415 -1.472319,-3.9722603 -0.02424,-0.038861 -0.0791,-0.1324558 -0.121924,-0.2079899 -0.144973,-0.2557161 -0.895376,-1.2110211 -1.176511,-1.4977649 -0.04199,-0.042832 -0.07635,-0.09751 -0.07635,-0.1215068 0,-0.023997 -0.01602,-0.04363 -0.03561,-0.04363 -0.01958,0 -0.161926,-0.1207598 -0.316319,-0.2683551 C 18.114594,2.794143 16.424086,1.8710272 14.528881,1.4218542 14.228923,1.3507626 13.8068,1.2719593 13.59083,1.2467358 c -0.21597,-0.025224 -0.557771,-0.065729 -0.759559,-0.090012 -0.469195,-0.056463 -1.196696,-0.056463 -1.665891,0 -0.201788,0.024283 -0.54359,0.06506 -0.75956,0.090614 C 9.820124,1.3166401 8.6342008,1.6105182 8.2243066,1.7879284 8.1523167,1.819087 8.0443318,1.8594164 7.9843401,1.8775493 7.9243485,1.8956821 7.6730242,2.0058509 7.4258416,2.1223688 7.1786591,2.2388868 6.959417,2.3342197 6.9386368,2.3342197 c -0.02078,0 -0.044326,0.016358 -0.052325,0.036351 -0.008,0.019993 -0.1519786,0.1118362 -0.3199552,0.2040962 C 6.1714861,2.7915463 5.9589565,2.9333259 5.4613698,3.3118083 5.237574,3.4820357 5.0240998,3.6409464 4.9869831,3.664943 4.761271,3.8108704 3.67563,4.9598053 3.3595311,5.3872769 3.2995395,5.4684056 3.2101739,5.5852767 3.160941,5.64699 2.9393663,5.9247333 2.6629351,6.375534 2.369775,6.9372136 1.7731027,8.080407 1.4144967,9.1895785 1.2342348,10.449451 c -0.1084289,0.757822 -0.1084289,2.339927 0,3.097749 0.3358195,2.347083 1.3668577,4.416382 3.0442685,6.109865 0.4241574,0.428222 1.1569811,1.05324 1.4588777,1.244261 0.07199,0.04555 0.1407077,0.09472 0.152706,0.109259 0.039748,0.04817 0.7082607,0.44128 1.1098957,0.652657 1.2081694,0.635849 2.5771408,1.033477 4.0602913,1.179342 0.585272,0.05756 1.900424,0.01206 2.552371,-0.08831 z"
       id="path212" /><path
       style="fill:#2b0000;stroke-width:0.0436303"
       d="M 6.9717832,16.889185 C 6.5969554,16.788292 6.2478777,16.48548 6.0363796,16.077756 L 5.9119021,15.837789 5.89951,12.456443 C 5.89134,10.226332 5.90253,9.0126203 5.932376,8.8915939 5.989244,8.6610164 6.2106064,8.2858096 6.2803737,8.3017406 c 0.028876,0.00659 0.041173,-0.00634 0.027327,-0.028746 C 6.2741822,8.2187611 6.5040469,8.0292486 6.7798197,7.8837552 7.0000962,7.7675409 7.0140744,7.7660294 7.9952477,7.7523319 L 8.9878364,7.738475 V 7.5727214 c 0,-0.1753803 0.1599631,-0.6136927 0.2239684,-0.6136927 0.020797,0 0.037813,-0.021511 0.037813,-0.047803 0,-0.091857 0.1790429,-0.2981092 0.3715823,-0.4280525 0.4211049,-0.2841998 0.4380599,-0.2863897 2.3266549,-0.3004958 1.863888,-0.013921 1.984387,-0.00209 2.393333,0.2349168 0.228903,0.132664 0.499857,0.413663 0.471677,0.4891623 -0.01166,0.031242 -0.0026,0.0453 0.02016,0.031239 0.05989,-0.037011 0.209335,0.3167237 0.243901,0.5772944 l 0.02962,0.223282 0.987353,0.013808 c 0.942506,0.013181 0.99627,0.018531 1.183688,0.1177822 0.434117,0.229896 0.673871,0.4969904 0.830313,0.9249965 0.08266,0.2261549 0.08592,0.3609523 0.08592,3.5522084 0,3.154567 -0.0041,3.328288 -0.0832,3.54477 -0.04576,0.125201 -0.12505,0.295345 -0.176194,0.378098 -0.116386,0.188316 -0.386329,0.428887 -0.442379,0.394246 -0.02315,-0.01431 -0.0367,-0.0018 -0.03011,0.02782 0.007,0.03127 -0.106915,0.09617 -0.271608,0.154792 l -0.283597,0.10095 -4.864775,-0.0018 c -3.7851993,-0.0014 -4.9103573,-0.01405 -5.0701731,-0.05707 z m 5.7250528,-2.332372 c 0.442302,-0.126487 0.738074,-0.29911 1.048874,-0.61216 0.49293,-0.496498 0.704578,-1.00931 0.70509,-1.708396 4.89e-4,-0.664648 -0.231717,-1.223345 -0.704304,-1.694594 -0.91167,-0.9090904 -2.419033,-0.9214718 -3.340469,-0.02744 -0.4339874,0.42108 -0.6453702,0.838898 -0.7177272,1.418655 -0.1491591,1.19513 0.5615842,2.293194 1.6934382,2.616281 0.38667,0.110375 0.944544,0.113621 1.315098,0.0077 z"
       id="path214" /></g></svg>
