<?xml version="1.0" encoding="UTF-8" standalone="no"?>
<svg
   width="24"
   height="24"
   viewBox="0 0 24 24"
   fill="none"
   version="1.1"
   id="svg13"
   sodipodi:docname="test.svg"
   inkscape:version="1.2 (dc2aedaf03, 2022-05-15)"
   xml:space="preserve"
   xmlns:inkscape="http://www.inkscape.org/namespaces/inkscape"
   xmlns:sodipodi="http://sodipodi.sourceforge.net/DTD/sodipodi-0.dtd"
   xmlns="http://www.w3.org/2000/svg"
   xmlns:svg="http://www.w3.org/2000/svg"><sodipodi:namedview
     id="namedview15"
     pagecolor="#ffffff"
     bordercolor="#000000"
     borderopacity="0.25"
     inkscape:showpageshadow="2"
     inkscape:pageopacity="0.0"
     inkscape:pagecheckerboard="0"
     inkscape:deskcolor="#d1d1d1"
     showgrid="true"
     inkscape:zoom="16.000001"
     inkscape:cx="11.343749"
     inkscape:cy="12.499999"
     inkscape:window-width="1920"
     inkscape:window-height="1057"
     inkscape:window-x="-8"
     inkscape:window-y="-8"
     inkscape:window-maximized="1"
     inkscape:current-layer="svg13"><inkscape:grid
       type="xygrid"
       id="grid915"
       originx="0"
       originy="0" /></sodipodi:namedview><defs
     id="defs11"><linearGradient
   id="linearGradient8674"
   inkscape:swatch="solid"><stop
     style="stop-color:#ffffff;stop-opacity:1;"
     offset="0"
     id="stop8672" /></linearGradient><rect
   x="50"
   y="0"
   width="95"
   height="25"
   id="rect7040" /><rect
   x="11.932427"
   y="6.805903"
   width="21.743532"
   height="9.280776"
   id="rect1261" /><clipPath
   id="clip0_50_327"><rect
     width="64"
     height="64"
     fill="#ffffff"
     id="rect8"
     x="0"
     y="0" /></clipPath>
	
	
<rect
   x="50"
   y="0"
   width="95"
   height="25"
   id="rect10184" />
		
		
		
		
		
		
		
		
		
		
		
		
		
		
		
		
		
		
		
	
	

		
		
	
	
</defs><path
     fill-rule="evenodd"
     d="m 11.55755,2.1835966 a 0.6249302,0.6249302 0 0 1 0.884901,0 l 2.499721,2.4997208 a 0.62571961,0.62571961 0 0 1 -0.884901,0.8849012 l -1.43234,-1.4335899 v 4.7407208 a 0.6249305,0.6249305 0 0 1 -1.249861,0 V 4.1346287 L 9.9427295,5.5682186 A 0.62571961,0.62571961 0 1 1 9.0578285,4.6833174 Z m 0.442451,12.3161244 a 0.6249302,0.6249302 0 0 1 0.62493,0.624931 v 4.74072 l 1.43234,-1.43359 a 0.62571961,0.62571961 0 0 1 0.884901,0.884901 l -2.499721,2.499721 a 0.6249302,0.6249302 0 0 1 -0.884901,0 L 9.0578285,19.316683 a 0.62571961,0.62571961 0 0 1 0.884901,-0.884901 l 1.4323405,1.43359 v -4.74072 a 0.6249302,0.6249302 0 0 1 0.624931,-0.624931 z m -9.8164044,-2.05727 a 0.6249302,0.6249302 0 0 1 0,-0.884901 L 4.6833174,9.0578285 a 0.62571961,0.62571961 0 1 1 0.8849012,0.884901 L 4.1346287,11.37507 h 4.7407208 a 0.6249305,0.6249305 0 0 1 0,1.249861 H 4.1346287 l 1.4335899,1.43234 a 0.62571963,0.62571962 0 0 1 -0.8849012,0.884901 z m 12.3161244,-0.44245 a 0.6249302,0.6249302 0 0 1 0.624931,-0.624931 h 4.74072 l -1.43359,-1.4323405 a 0.62571961,0.62571961 0 0 1 0.884901,-0.884901 l 2.499721,2.4997215 a 0.6249302,0.6249302 0 0 1 0,0.884901 l -2.499721,2.499721 a 0.62571961,0.62571961 0 0 1 -0.884901,-0.884901 l 1.43359,-1.43234 h -4.74072 a 0.6249302,0.6249302 0 0 1 -0.624931,-0.62493 z"
     id="path274"
     style="fill:#000000;stroke-width:1" /></svg>
